# xmcd CD database file
#
# Track frame offsets:
#	150
#	15674
#	33924
#	48566
#	66169
#	84372
#	101578
#	119483
#	137569
#	152644
#	170069
#	190978
#	207028
#	221978
#
# Disc length: 3159 seconds
#
# Revision: 1
# Processed by: cddbd v1.5.2PL0 Copyright (c) Steve Scherf et al.
# Submitted via: CDex 1.70beta2
#
DISCID=c50c550e
DTITLE=Adrian Stern - Stern
DYEAR=2003
DGENRE=Pop
TTITLE0=Einisch meh
TTITLE1=Ha nur welle wüsse
TTITLE2=Sie isch furt
TTITLE3=Wer hetti das dänkt
TTITLE4=Säg es isch nid so
TTITLE5=Alles chunnt guet
TTITLE6=Nei
TTITLE7=Tüflische Plan
TTITLE8=S'Bescht
TTITLE9=Summer bi Dir
TTITLE10=Mag nüme warte
TTITLE11=Sie weiss es
TTITLE12=No chli da
TTITLE13=Summer bi Dir (RadioEdit) 
EXTD=YEAR: 2003
EXTT0=
EXTT1=
EXTT2=
EXTT3=
EXTT4=
EXTT5=
EXTT6=
EXTT7=
EXTT8=
EXTT9=
EXTT10=
EXTT11=
EXTT12=
EXTT13=
PLAYORDER=
